<svg xmlns="http://www.w3.org/2000/svg" viewBox="0 0 100 125" fill="none" x="0px" y="0px"><path d="M49.5464 53.8889C57.0511 53.8889 63.846 50.909 68.7671 46.0902C77.9465 52.0584 83.9987 62.2807 83.9987 73.8889L83.9993 77.7375C83.9997 80.6166 82.7909 83.4005 80.4671 85.1003C71.9663 91.3187 61.4215 95 49.9997 95C38.5781 95 28.0334 91.3188 19.5327 85.1006C17.209 83.4009 16.0001 80.6172 16.0004 77.7383L16.0007 73.8889L16.0024 73.5479C16.1174 62.3075 21.907 52.3992 30.6967 46.4452C35.5853 51.0554 42.2283 53.8889 49.5464 53.8889Z" fill="#41aaa9"/><path d="M26.8804 27.2222C26.8804 14.9492 37.0283 5 49.5464 5C62.0645 5 72.2124 14.9492 72.2124 27.2222C72.2124 39.4952 62.0645 49.4444 49.5464 49.4444C37.0283 49.4444 26.8804 39.4952 26.8804 27.2222Z" fill="#41aaa9"/></svg>